Coordinates
version=1
nRows=37
nColumns=38
inDegrees=no

Units are S.I. units (second, meters, Newtons, ...)
If the header above contains a line with 'inDegrees', this indicates whether rotational values are in degrees (yes) or radians (no).

endheader
time	pelvis_tilt	pelvis_list	pelvis_rotation	pelvis_tx	pelvis_ty	pelvis_tz	hip_flexion_r	hip_adduction_r	hip_rotation_r	knee_angle_r	ankle_angle_r	subtalar_angle_r	mtp_angle_r	hip_flexion_l	hip_adduction_l	hip_rotation_l	knee_angle_l	ankle_angle_l	subtalar_angle_l	mtp_angle_l	lumbar_extension	lumbar_bending	lumbar_rotation	arm_flex_r	arm_add_r	arm_rot_r	elbow_flex_r	pro_sup_r	wrist_flex_r	wrist_dev_r	arm_flex_l	arm_add_l	arm_rot_l	elbow_flex_l	pro_sup_l	wrist_flex_l	wrist_dev_l
0.57	2.83638	1.42937	-1.28651	0.681206	-0.0139252	0.953342	0.297785	-0.0964202	-0.336299	0.368027	0.0405002	0	0	-0.297254	0.00272933	-0.232053	0.0571193	0.129242	0	0	-0.257041	0.0443453	0.0993706	0.0696534	-0.337671	0.859794	0.375637	0.740969	0	0	0.174471	-0.146968	0.211589	0.247258	1.5708	0	0
0.58	2.80813	1.4325	-1.26277	0.683315	-0.00609187	0.951988	0.291707	-0.0783758	-0.338894	0.303779	0.0393925	0	0	-0.303242	-0.00103119	-0.237614	0.0561981	0.135104	0	0	-0.255349	0.0468434	0.102332	0.0749077	-0.337526	0.874295	0.374764	0.727004	0	0	0.177376	-0.147274	0.208347	0.24327	1.5708	0	0
0.59	2.77763	1.43579	-1.2373	0.68555	0.00192016	0.950517	0.285087	-0.0593654	-0.333362	0.241685	0.0391448	0	0	-0.308969	-0.00481478	-0.244919	0.056029	0.142922	0	0	-0.253066	0.049477	0.105754	0.0794869	-0.337678	0.887766	0.374292	0.713616	0	0	0.178218	-0.148298	0.205686	0.242918	1.5708	0	0
0.6	2.74761	1.4393	-1.21269	0.687878	0.0101777	0.948924	0.278107	-0.0407831	-0.319876	0.183135	0.0360583	0	0	-0.314967	-0.00799527	-0.251999	0.0556416	0.149712	0	0	-0.24987	0.0518833	0.109544	0.082695	-0.337776	0.897014	0.374106	0.704789	0	0	0.177393	-0.149752	0.205025	0.245034	1.5708	0	0
0.61	2.72586	1.4424	-1.19551	0.690134	0.0186508	0.947287	0.270568	-0.0249909	-0.302081	0.131049	0.0296131	0	0	-0.322035	-0.0101618	-0.257063	0.0550788	0.154377	0	0	-0.246739	0.0534933	0.112802	0.0843543	-0.33792	0.902453	0.374373	0.699132	0	0	0.176021	-0.1514	0.206159	0.247743	1.5708	0	0
0.62	2.71243	1.4452	-1.18559	0.692248	0.0273947	0.945619	0.264782	-0.0131879	-0.286536	0.0909756	0.0226305	0	0	-0.329943	-0.0114962	-0.261094	0.0546516	0.159764	0	0	-0.243486	0.054519	0.115073	0.0846662	-0.338396	0.904609	0.3754	0.697221	0	0	0.173914	-0.153082	0.207122	0.250286	1.5708	0	0
0.63	2.70292	1.4478	-1.17897	0.694256	0.0364532	0.943926	0.262452	-0.00485048	-0.27701	0.0662627	0.0194444	0	0	-0.338256	-0.0124651	-0.264334	0.0548598	0.165357	0	0	-0.239642	0.0556184	0.116524	0.0837085	-0.339352	0.904987	0.377224	0.698187	0	0	0.170807	-0.154345	0.206425	0.25235	1.5708	0	0
0.64	2.69564	1.44953	-1.17324	0.696048	0.0457096	0.942299	0.262364	0.000820266	-0.274374	0.055628	0.0196639	0	0	-0.346881	-0.0138582	-0.266656	0.0564826	0.171389	0	0	-0.236275	0.0574715	0.116408	0.0823127	-0.340775	0.904862	0.379385	0.700197	0	0	0.166422	-0.155481	0.206106	0.256124	1.5708	0	0
0.65	2.68802	1.45014	-1.16577	0.697603	0.0551838	0.940797	0.263817	0.00458684	-0.277023	0.0580123	0.0215863	0	0	-0.355786	-0.0161837	-0.268052	0.0596528	0.177383	0	0	-0.233344	0.0606208	0.114907	0.080526	-0.342469	0.904207	0.380995	0.701221	0	0	0.161895	-0.155667	0.205131	0.25845	1.5708	0	0
0.66	2.67957	1.44952	-1.15589	0.69894	0.0649112	0.939447	0.265551	0.00700097	-0.282578	0.070951	0.0204033	0	0	-0.365152	-0.0196957	-0.269101	0.0642855	0.183357	0	0	-0.230894	0.0651315	0.111664	0.0784438	-0.34461	0.903824	0.382758	0.702626	0	0	0.155967	-0.155682	0.203786	0.262014	1.5708	0	0
0.67	2.67501	1.44799	-1.14868	0.700153	0.0748984	0.938251	0.267152	0.00771737	-0.290149	0.0927826	0.0152542	0	0	-0.375081	-0.0237299	-0.269866	0.0700534	0.188454	0	0	-0.228949	0.0700315	0.106808	0.0762234	-0.346721	0.904296	0.384259	0.704774	0	0	0.148883	-0.155572	0.201687	0.26612	1.5708	0	0
0.68	2.6777	1.44588	-1.14702	0.701243	0.0851494	0.937192	0.267739	0.00647494	-0.300975	0.119273	0.00955533	0	0	-0.385145	-0.0280588	-0.269858	0.0774233	0.192419	0	0	-0.227319	0.0746383	0.0999388	0.0738364	-0.348358	0.904873	0.385214	0.707228	0	0	0.141237	-0.155423	0.199061	0.269695	1.5708	0	0
0.69	2.62676	1.43816	-1.09328	0.702189	0.0945218	0.937237	0.26072	0.0147534	-0.322594	0.133325	-0.00351346	0	0	-0.394508	-0.0413553	-0.27451	0.0888155	0.196068	0	0	-0.231394	0.0893149	0.0957663	0.0753575	-0.352517	0.90649	0.385591	0.710187	0	0	0.136338	-0.151456	0.194131	0.271447	1.5708	0	0
0.7	2.626	1.43383	-1.0844	0.703188	0.105163	0.936556	0.254	0.0149486	-0.33452	0.149487	-0.00473479	0	0	-0.403986	-0.0496481	-0.274126	0.100224	0.199861	0	0	-0.230646	0.0961543	0.0851644	0.0729591	-0.353725	0.908773	0.386126	0.713624	0	0	0.128299	-0.15063	0.187241	0.273463	1.5708	0	0
0.71	2.62108	1.42928	-1.07105	0.704327	0.115872	0.936069	0.245085	0.0167768	-0.343306	0.158401	-0.0141968	0	0	-0.412171	-0.0595269	-0.274729	0.113388	0.202615	0	0	-0.229782	0.103623	0.074162	0.0705886	-0.354652	0.910937	0.386253	0.716901	0	0	0.119224	-0.149959	0.178675	0.277058	1.5708	0	0
0.72	2.60642	1.42455	-1.04864	0.705706	0.126577	0.935733	0.235462	0.0209054	-0.349577	0.16246	-0.0364102	0	0	-0.418206	-0.0715986	-0.277871	0.12929	0.205133	0	0	-0.228589	0.112324	0.0637179	0.0683405	-0.355597	0.912672	0.386513	0.719941	0	0	0.109456	-0.149236	0.168741	0.281858	1.5708	0	0
0.73	2.5853	1.42009	-1.02121	0.707401	0.137273	0.935542	0.227511	0.0255149	-0.35653	0.168237	-0.0612099	0	0	-0.421396	-0.085091	-0.283715	0.149236	0.20587	0	0	-0.226894	0.121456	0.0545921	0.066035	-0.356553	0.913482	0.38722	0.722834	0	0	0.0991279	-0.148506	0.158418	0.287582	1.5708	0	0
0.74	2.56188	1.41617	-0.993399	0.709479	0.147986	0.935525	0.222858	0.0288491	-0.366602	0.181449	-0.076333	0	0	-0.421428	-0.0991982	-0.29133	0.173918	0.204942	0	0	-0.221795	0.131006	0.0386044	0.0708064	-0.355636	0.928777	0.383558	0.725754	0	0	0.0816944	-0.148949	0.139655	0.296784	1.5708	0	0
0.75	2.57582	1.4196	-1.00142	0.711827	0.159943	0.934591	0.228947	0.0194374	-0.371423	0.216731	-0.0637411	0	0	-0.417505	-0.105777	-0.29461	0.200359	0.202857	0	0	-0.211737	0.129263	0.0276485	0.0644883	-0.354322	0.935264	0.385395	0.727294	0	0	0.0650771	-0.151726	0.126293	0.308522	1.5708	0	0
0.76	2.54586	1.41696	-0.970013	0.714241	0.170685	0.934986	0.227491	0.0210528	-0.384281	0.237453	-0.0606598	0	0	-0.411038	-0.120905	-0.302215	0.233304	0.196595	0	0	-0.20792	0.137426	0.023611	0.0613551	-0.355642	0.93676	0.387464	0.728553	0	0	0.053234	-0.150487	0.115693	0.317652	1.5708	0	0
0.77	2.51118	1.41297	-0.935527	0.71699	0.181374	0.935755	0.223654	0.0259518	-0.392226	0.254915	-0.0560155	0	0	-0.402489	-0.138431	-0.310486	0.270905	0.186339	0	0	-0.205154	0.146575	0.0219003	0.0582409	-0.356644	0.936444	0.389393	0.730109	0	0	0.042397	-0.148892	0.105123	0.326056	1.5708	0	0
0.78	2.47335	1.40825	-0.899759	0.720086	0.191939	0.936883	0.217877	0.0339077	-0.397203	0.268713	-0.0490762	0	0	-0.390802	-0.158044	-0.31958	0.314123	0.172021	0	0	-0.203103	0.156088	0.0227174	0.0555498	-0.357395	0.9358	0.391153	0.732128	0	0	0.0329572	-0.147053	0.0943974	0.333892	1.5708	0	0
0.79	2.43244	1.40407	-0.862521	0.723515	0.202384	0.938168	0.210803	0.0439236	-0.401359	0.277415	-0.041663	0	0	-0.374152	-0.179141	-0.327808	0.363935	0.15286	0	0	-0.200267	0.165152	0.0259022	0.0529574	-0.357719	0.935737	0.392307	0.734747	0	0	0.0247781	-0.145288	0.0843668	0.340786	1.5708	0	0
0.8	2.39024	1.40082	-0.82499	0.727194	0.212711	0.939481	0.202477	0.0552782	-0.405193	0.28062	-0.0354595	0	0	-0.352212	-0.201115	-0.333858	0.419201	0.127589	0	0	-0.196342	0.173234	0.0306212	0.0505486	-0.357465	0.936568	0.392476	0.738258	0	0	0.0173091	-0.144007	0.0759969	0.347055	1.5708	0	0
0.81	2.34663	1.39912	-0.78638	0.731017	0.22292	0.940674	0.193473	0.0674497	-0.407234	0.278573	-0.0294545	0	0	-0.324447	-0.223105	-0.33605	0.478672	0.0936985	0	0	-0.1907	0.179906	0.0360405	0.0480709	-0.357228	0.938142	0.39282	0.7418	0	0	0.0100569	-0.143774	0.0710444	0.353478	1.5708	0	0
0.82	2.30647	1.39907	-0.751358	0.734853	0.232914	0.941728	0.184121	0.0790436	-0.406946	0.27321	-0.0235804	0	0	-0.292531	-0.243155	-0.333198	0.5395	0.050376	0	0	-0.184157	0.184503	0.0421696	0.0454912	-0.357448	0.941276	0.394195	0.742051	0	0	0.00439206	-0.144516	0.0691975	0.359058	1.5708	0	0
0.83	2.26075	1.40013	-0.7111	0.738655	0.242726	0.942513	0.175541	0.0908244	-0.405591	0.265493	-0.0185624	0	0	-0.25644	-0.262676	-0.328147	0.601103	-0.00110568	0	0	-0.175972	0.188717	0.0492599	0.0423377	-0.358851	0.945099	0.39713	0.738236	0	0	0.000436647	-0.145332	0.0679562	0.362716	1.5708	0	0
0.84	2.21081	1.40153	-0.666491	0.742348	0.252284	0.943068	0.167498	0.102326	-0.403641	0.25637	-0.014098	0	0	-0.217474	-0.281368	-0.319755	0.662129	-0.057953	0	0	-0.167057	0.192874	0.0565623	0.0392121	-0.361383	0.949403	0.40149	0.73371	0	0	-0.00307154	-0.146856	0.0688706	0.367303	1.5708	0	0
0.85	2.16101	1.40273	-0.621714	0.745847	0.261547	0.943489	0.159576	0.112926	-0.40022	0.246943	-0.00906414	0	0	-0.176751	-0.298582	-0.307867	0.722843	-0.11742	0	0	-0.158594	0.196845	0.0639297	0.0360698	-0.364975	0.952137	0.407578	0.729261	0	0	-0.0059724	-0.148867	0.0709664	0.372881	1.5708	0	0
0.86	2.11693	1.40296	-0.582396	0.749076	0.270578	0.943984	0.150994	0.12266	-0.394964	0.238643	-0.00371246	0	0	-0.136608	-0.314239	-0.293745	0.782169	-0.173631	0	0	-0.151984	0.200965	0.0713148	0.0329793	-0.369591	0.952456	0.415367	0.726125	0	0	-0.00862499	-0.150933	0.0733705	0.379956	1.5708	0	0
0.87	2.0885	1.40205	-0.557811	0.751993	0.279317	0.944771	0.140255	0.130785	-0.388791	0.231532	0.000975926	0	0	-0.0990878	-0.32742	-0.278039	0.838389	-0.216722	0	0	-0.149137	0.204553	0.0782987	0.0306186	-0.374499	0.951408	0.423654	0.723664	0	0	-0.010527	-0.153193	0.0766336	0.388092	1.5708	0	0
0.88	2.07778	1.40096	-0.550654	0.754738	0.287866	0.945864	0.127046	0.13692	-0.381108	0.224827	0.00609692	0	0	-0.0652411	-0.337208	-0.263786	0.889511	-0.245324	0	0	-0.149709	0.206418	0.085289	0.0289315	-0.378621	0.949138	0.431095	0.720683	0	0	-0.0116768	-0.15577	0.0806525	0.396509	1.5708	0	0
0.89	2.08206	1.40016	-0.558342	0.7574	0.296266	0.947206	0.111329	0.1415	-0.372589	0.217336	0.0109651	0	0	-0.0345516	-0.343914	-0.251101	0.936777	-0.275639	0	0	-0.152834	0.206253	0.0920339	0.0281421	-0.381536	0.946622	0.437238	0.71743	0	0	-0.0128199	-0.158521	0.0835698	0.406167	1.5708	0	0
0.9	2.09792	1.39937	-0.577125	0.759992	0.304501	0.948767	0.092922	0.145429	-0.363481	0.207708	0.0147805	0	0	-0.00615023	-0.348439	-0.237879	0.982518	-0.320649	0	0	-0.157975	0.204579	0.0982484	0.02849	-0.382643	0.944278	0.440686	0.716297	0	0	-0.0133765	-0.161291	0.0861957	0.415934	1.5708	0	0
0.91	2.12651	1.40118	-0.607927	0.763868	0.31258	0.950327	0.0745774	0.151919	-0.347097	0.196764	0.0135135	0	0	0.0198171	-0.360017	-0.22174	1.02165	-0.357216	0	0	-0.163969	0.196879	0.108158	0.0250107	-0.379352	0.93008	0.441635	0.721493	0	0	-0.0100241	-0.165957	0.0947235	0.422863	1.5708	0	0
0.92	2.15887	1.40098	-0.644118	0.766503	0.320732	0.95207	0.0515178	0.154782	-0.334939	0.181767	0.0143908	0	0	0.0423686	-0.360667	-0.208517	1.06291	-0.362782	0	0	-0.170105	0.192751	0.111286	0.0302586	-0.377401	0.937717	0.438132	0.720798	0	0	-0.0125249	-0.167945	0.0925886	0.431144	1.5708	0	0
0.93	2.19753	1.39464	-0.690084	0.767424	0.327937	0.954151	0.0260551	0.158514	-0.320109	0.17013	0.0130912	0	0	0.0594463	-0.362111	-0.200851	1.10776	-0.310881	0	0	-0.15784	0.181041	0.195247	-0.0466377	-0.363865	0.758908	0.432727	0.812431	0	0	0.0591345	-0.188196	0.413675	0.374877	1.39498	0	0
